<svg id="icon" height="512" viewBox="0 0 128 128" width="512" xmlns="http://www.w3.org/2000/svg"><g fill="#ef5261"><path d="m31.536 78.4a1.09 1.09 0 0 1 -.492-2.062l4.85-2.452a1.09 1.09 0 1 1 .983 1.945l-4.85 2.452a1.078 1.078 0 0 1 -.491.117z"/><path d="m27.611 69.079a1.09 1.09 0 0 1 -.161-2.168l7.629-1.144a1.09 1.09 0 1 1 .324 2.155l-7.629 1.145a1.138 1.138 0 0 1 -.163.012z"/><path d="m51.481 39.543a1.087 1.087 0 0 1 -.955-.564l-4.142-7.52a1.09 1.09 0 1 1 1.91-1.052l4.141 7.52a1.09 1.09 0 0 1 -.954 1.616z"/><path d="m76.438 40.47a1.091 1.091 0 0 1 -.985-1.555l3.161-6.7a1.09 1.09 0 1 1 1.971.93l-3.161 6.7a1.087 1.087 0 0 1 -.986.625z"/><path d="m90.935 57.8a1.09 1.09 0 0 1 -.451-2.083l7.084-3.217a1.09 1.09 0 1 1 .9 1.985l-7.083 3.215a1.094 1.094 0 0 1 -.45.1z"/><path d="m83.687 95.018a1.088 1.088 0 0 1 -.877-.442l-5.558-7.52a1.09 1.09 0 0 1 1.748-1.296l5.559 7.52a1.091 1.091 0 0 1 -.876 1.738z"/><path d="m59.273 98.56a1.09 1.09 0 0 1 -1.09-1.09v-5.994a1.09 1.09 0 1 1 2.18 0v5.994a1.09 1.09 0 0 1 -1.09 1.09z"/><path d="m49.572 98.942a1.092 1.092 0 0 1 -.992-1.54l4.2-9.264a1.09 1.09 0 0 1 1.986.9l-4.2 9.264a1.09 1.09 0 0 1 -.994.64z"/><circle cx="63.668" cy="64.273" r="31.19"/><rect height="5.913" rx="2.956" width="10.79" x="58.964" y="21.478"/><path d="m67.611 34.439h-6.431l.872-7.702h4.687z"/><rect height="5.913" rx="2.956" transform="matrix(.669 -.743 .743 .669 -16.149 37.933)" width="10.79" x="29.129" y="34.146"/><path d="m44.135 41.38-4.303 4.779-5.14-5.802 3.136-3.483z"/><rect height="5.913" rx="2.956" transform="matrix(.225 -.974 .974 .225 -33.857 66.712)" width="10.79" x="19.611" y="51.682"/><path d="m35.485 53.72-1.447 6.266-7.308-2.582 1.054-4.567z"/><rect height="5.913" rx="2.956" transform="matrix(-.966 .259 -.259 -.966 170.765 183.386)" width="10.79" x="67.916" y="99.977"/><path d="m67.581 94.112 6.211-1.664 1.152 7.665-4.527 1.213z"/><rect height="5.913" rx="2.956" transform="matrix(-.545 .839 -.839 -.545 221.959 52.588)" width="10.79" x="91.308" y="83.595"/><path d="m86.542 83.829 3.502-5.393 5.984 4.926-2.552 3.931z"/><rect height="5.913" rx="2.956" transform="matrix(-.052 .999 -.999 -.052 175.785 -32.716)" width="10.79" x="98.021" y="64.092"/><path d="m93.255 69.772.337-6.421 7.645 1.273-.245 4.681z"/><rect height="5.913" rx="2.956" transform="matrix(.656 .755 -.755 .656 61.571 -57.788)" width="10.79" x="88.793" y="35.702"/><path d="m88.771 47.676-4.219-4.853 6.385-4.395 3.075 3.537z"/><path d="m28.628 86.238-.112.1a4.321 4.321 0 0 0 -.316 6.262l4.7 4.936a4.32 4.32 0 0 0 6.184.075 4.321 4.321 0 0 0 .137-5.967l-4.589-5.031a4.321 4.321 0 0 0 -6.004-.375z"/><path d="m34.642 87.716 4.632-6.703 5.613 6.267-7.739 3.923z"/></g><circle cx="59.273" cy="80.523" fill="#da364c" r="6.812"/><circle cx="54.641" cy="57.036" fill="#da364c" r="11.008"/><circle cx="80.58" cy="60.578" fill="#da364c" r="4.85"/><rect fill="#da364c" height="2.834" rx="1.417" width="6.158" x="74.422" y="46.028"/><rect fill="#da364c" height="2.725" rx="1.362" width="5.504" x="69.518" y="70.169"/><rect fill="#da364c" height="2.561" rx="1.281" width="6.648" x="74.259" y="80.523"/><rect fill="#da364c" height="2.979" rx="1.49" width="5.522" x="41.998" y="72.258"/></svg>